<?xml version="1.0" encoding="iso-8859-1"?>
<!DOCTYPE svg PUBLIC "-//W3C//DTD SVG 1.1//EN" "http://www.w3.org/Graphics/SVG/1.1/DTD/svg11.dtd">
<svg fill="#000000" version="1.1" id="Capa_1" xmlns="http://www.w3.org/2000/svg" xmlns:xlink="http://www.w3.org/1999/xlink" 
	 width="800px" height="800px" viewBox="0 0 94 94" xml:space="preserve">
<g>
	<g>
		<path d="M43.788,31.049l-0.001-0.031l-1.654-1.146c-0.041,0.217-0.109,0.439-0.23,0.65c0.124,0.367,0.186,0.732,0.188,1.1
			c0.024-0.004,0.05-0.01,0.073-0.016c0.327-0.059,0.636-0.117,0.896-0.262C43.284,31.227,43.529,31.133,43.788,31.049z"/>
		<path d="M44.118,27.477c0.107,0.063,0.205,0.143,0.3,0.229c0.041-0.016,0.081-0.031,0.121-0.043
			c-0.05-0.133-0.08-0.258-0.094-0.373c-0.087-0.016-0.163-0.041-0.238-0.064C44.186,27.313,44.15,27.395,44.118,27.477z"/>
		<path d="M53.002,21.17c0.051,0.104,0.104,0.207,0.15,0.311c0.039,0.08,0.078,0.16,0.115,0.24
			C53.219,21.475,53.143,21.293,53.002,21.17z"/>
		<path d="M44.997,17.85l-0.134-0.121c-0.186-0.168-0.36-0.369-0.5-0.6c-0.047,0.068-0.097,0.139-0.15,0.205
			c0.222,0.27,0.304,0.586,0.326,0.877l0.84-0.396c0-0.002,0-0.008,0-0.012c-0.067,0.01-0.137,0.018-0.203,0.025L44.997,17.85z"/>
		<path d="M44.59,23.885c-0.11-0.189-0.196-0.377-0.263-0.562c-0.199,0.115-0.429,0.201-0.67,0.271L44.59,23.885z"/>
		<path d="M42.41,28.436c0.009,0.051,0.005,0.102,0.008,0.152l0.056,0.006c0.409,0.098,0.767,0.273,1.096,0.494l0.084-0.121
			c0.036-0.035,0.074-0.061,0.11-0.094c-0.008-0.074-0.018-0.15-0.021-0.225l-0.351-0.357c-0.251,0.104-0.505,0.174-0.761,0.174
			C42.558,28.465,42.482,28.443,42.41,28.436z"/>
		<path d="M41.885,22.662c-0.012,0.043-0.012,0.146,0.082,0.336c0.226-0.168,0.465-0.316,0.708-0.453
			c0.027-0.016,0.053-0.029,0.08-0.047c0.066-0.105,0.137-0.211,0.207-0.313c0.054-0.08,0.097-0.146,0.141-0.215
			c-0.146,0.072-0.292,0.139-0.437,0.199C42.341,22.309,41.934,22.479,41.885,22.662z"/>
		<path d="M43.002,24.654c0.235,0.141,0.461,0.314,0.661,0.533l0.097-0.104c-0.26-0.111-0.511-0.25-0.753-0.439
			C43.005,24.648,43.003,24.652,43.002,24.654z"/>
		<path d="M42.117,25.518c0.176,0.26,0.3,0.602,0.327,1.053l0.006,0.076l-0.024,0.072c-0.029,0.088-0.084,0.162-0.123,0.244
			l0.139,0.273h-0.245v0.006l0.72-0.004l0.021-0.953l-0.798-0.781C42.133,25.508,42.125,25.512,42.117,25.518z"/>
		<path d="M44.521,19.529c-0.006,0-0.014-0.002-0.02-0.002c0.079,0.15,0.127,0.307,0.143,0.473l0.028-0.004l-0.019,0.121
			l0.034-0.082l0.311,0.092l0.263,0.023l0.01,0.057l0.708,0.209c-0.177-0.379-0.329-0.771-0.44-1.182
			C45.231,19.428,44.895,19.529,44.521,19.529z"/>
		<path d="M42.003,32.457c0.191,0.1,0.38,0.184,0.529,0.184c0.059,0,0.202-0.016,0.4-0.262c-0.017-0.039-0.03-0.076-0.046-0.115
			c-0.192,0.055-0.386,0.092-0.576,0.127C42.203,32.41,42.105,32.434,42.003,32.457z"/>
		<path d="M49.628,24.932c0.022-0.014,0.047-0.027,0.073-0.039c-0.033-0.027-0.059-0.055-0.092-0.082
			c-0.105-0.088-0.219-0.182-0.328-0.283C49.375,24.654,49.494,24.787,49.628,24.932z"/>
		<path d="M50.383,20.873c0.035,0,0.072,0.002,0.107,0c0.65-0.045,1.039-0.104,1.299-0.455l0.042-0.889
			c-0.087,0.088-0.175,0.172-0.263,0.262c-0.344,0.355-0.726,0.73-1.205,0.994C50.373,20.813,50.374,20.844,50.383,20.873z"/>
		<path d="M50.58,25.871c0.097,0.072,0.189,0.15,0.292,0.215l-0.267-0.26C50.598,25.842,50.588,25.855,50.58,25.871z"/>
		<path d="M51.586,29.857c0.07-0.045,0.141-0.094,0.215-0.133c-0.057-0.008-0.113-0.008-0.171-0.021
			c-0.041,0.027-0.083,0.053-0.127,0.078C51.529,29.807,51.562,29.828,51.586,29.857z"/>
		<path d="M52.945,27.555c-0.162,0-0.32-0.021-0.479-0.049c0.035,0.311,0.015,0.621-0.063,0.936l0.707-0.244
			c-0.024-0.217-0.012-0.439,0.037-0.662C53.08,27.541,53.016,27.555,52.945,27.555z"/>
		<path d="M46.389,24.957c-0.031-0.012-0.063-0.025-0.094-0.043c-0.034,0.006-0.07,0.021-0.106,0.021
			c-0.032,0-0.07-0.006-0.108-0.012l-0.09,0.078c-0.151,0.088-0.315,0.15-0.482,0.203c-0.104,0.275-0.309,0.502-0.457,0.662
			l-0.098,0.096c-0.067,0.049-0.138,0.088-0.206,0.131c0.032,0.063,0.078,0.109,0.12,0.162c0.094-0.084,0.19-0.156,0.279-0.211
			c0.483-0.213,0.928-0.299,1.36-0.279C46.431,25.51,46.393,25.24,46.389,24.957z"/>
		<path d="M44.588,30.156c0.063,0.1,0.134,0.186,0.19,0.293l0.028,0.076c0.021,0.07,0.023,0.137,0.033,0.205l1.339-0.83
			c-0.489-0.178-1.021-0.301-1.587-0.297L44.588,30.156z"/>
		<path d="M45.379,21.701c0.006,0.725,0.08,1.221,0.607,1.598c0.168-0.021,0.336-0.031,0.506-0.02h0.001
			c0.208-0.016,0.417-0.023,0.626-0.029l0.32-0.287c-0.303-0.338-0.537-0.713-0.745-1.094c-0.063,0.008-0.117,0.027-0.181,0.027
			c-0.365,0-0.712-0.088-1.048-0.174L45.379,21.701z"/>
		<path d="M47.677,24.26v0.15l0.749,2.025l0.426,0.012c0.078-0.103,0.129-0.293,0.178-0.484c0.029-0.115,0.063-0.246,0.111-0.383
			c-0.443-0.471-0.992-1.064-0.916-1.861C48.081,23.93,47.896,24.107,47.677,24.26z"/>
		<path d="M51.532,18.604c-0.38,0.168-0.626,0.5-0.866,0.967c0.109-0.105,0.218-0.217,0.327-0.332
			c0.174-0.178,0.353-0.359,0.544-0.531C51.533,18.674,51.531,18.639,51.532,18.604z"/>
		<path d="M54.146,22.303c0,0.012,0.002,0.023,0.004,0.035l1.412-0.49l0.213-0.563c-0.105-0.207-0.199-0.416-0.268-0.633
			c-0.009-0.072-0.006-0.137-0.007-0.205c-0.803-0.004-1.62-0.016-2.39-0.281c0,0.053-0.01,0.107-0.014,0.16
			C53.986,20.686,54.086,21.627,54.146,22.303z"/>
		<path d="M54.928,31.262l-0.104,0.002l-1.18,1.701c0.438-0.146,0.877-0.215,1.308-0.254L54.928,31.262z"/>
		<path d="M54.967,33.508c-0.23,0.023-0.459,0.061-0.686,0.113l0.688-0.004L54.967,33.508z"/>
		<path d="M55.613,18.852c0.033,0.014,0.068,0.025,0.104,0.041c-0.01-0.025-0.021-0.049-0.031-0.074
			C55.662,18.828,55.637,18.842,55.613,18.852z"/>
		<path d="M54.057,24.521l-0.022,1.309C54.148,25.42,54.152,24.984,54.057,24.521z"/>
		<path d="M54.471,29.615c-0.098,0.006-0.188,0.016-0.27,0.027c0.232,0.148,0.4,0.334,0.527,0.531
			c0.033-0.006,0.061-0.02,0.098-0.027l0.056-0.01l0.058,0.008c0.137,0.014,0.266,0.045,0.387,0.086
			C55.102,29.982,54.818,29.777,54.471,29.615z"/>
		<path d="M45.178,33.553c0.006-0.223,0.081-0.438,0.223-0.646c0.004-0.074,0.008-0.15,0.012-0.225l-1.146-0.576l-0.563,0.566
			c-0.325,0.504-0.718,0.766-1.171,0.766c-0.185,0-0.36-0.045-0.529-0.107c0.477,0.512,0.846,1.107,1.112,1.777
			C43.613,34.432,44.199,33.744,45.178,33.553z"/>
		<path d="M57.207,25.354c-0.67,0.309-1.326,0.713-1.982,1.217C56.021,26.238,56.672,25.842,57.207,25.354z"/>
		<path d="M59.844,19.754c0.34-0.004,0.708-0.07,1.096-0.162c0.006-0.035,0.004-0.072,0.012-0.107L59.844,19.754z"/>
		<path d="M50.553,22.172c-0.113-0.027-0.225-0.059-0.328-0.1c-0.205,0.506-0.483,0.873-0.838,1.166
			c0.063,0.367,0.319,0.615,0.732,0.959c0.261,0.217,0.521,0.449,0.725,0.746l0.758,0.744c0.67-0.01,1.203,0.23,1.627,0.561
			l0.049-2.502c-0.246-0.127-0.508-0.238-0.786-0.35C51.812,23.125,51.066,22.828,50.553,22.172z"/>
		<path d="M56.904,17.756l-0.15-0.086l-0.119,0.234c0.479,0.377,0.641,0.895,0.692,1.357l0.478,0.002h0.062
			c-0.051-0.336-0.075-0.682,0.029-0.98C57.559,18.119,57.227,17.939,56.904,17.756z"/>
		<path d="M57.529,28.613l0.076-0.033c0.146-0.047,0.287-0.061,0.427-0.061c0.251-0.664,0.737-1.08,1.282-1.371
			c-0.187-0.381-0.258-0.822-0.226-1.324c-0.305-0.066-0.587-0.199-0.844-0.324l-0.048-0.023c-1.201,1.326-2.768,1.947-4.12,2.326
			l0.005,0.262l0.335,0.037l0.062-0.01c0.222-0.037,0.446-0.057,0.672-0.057c0.875,0,1.649,0.283,2.326,0.613
			C57.495,28.637,57.512,28.623,57.529,28.613z"/>
		<path d="M44.015,37.033l1.55,0.373c0.004-0.031,0.007-0.062,0.011-0.09c-0.341-0.047-0.669-0.107-0.991-0.172
			C44.391,37.105,44.202,37.066,44.015,37.033z"/>
		<path d="M48.408,28.631c-0.021-0.041-0.049-0.082-0.066-0.127c-0.104-0.277-0.115-0.578-0.053-0.906
			c-0.18-0.041-0.354-0.098-0.523-0.176c-0.08-0.057-0.149-0.119-0.223-0.178l-1.539,0.049l0.02,0.02
			c0.849,0.381,1.401,0.984,1.626,1.779C47.891,28.869,48.143,28.709,48.408,28.631z"/>
		<path d="M44.572,34.764c0.041-0.059,0.084-0.115,0.125-0.174c-0.422,0.277-0.742,0.715-1.089,1.193
			c-0.012,0.016-0.026,0.033-0.038,0.051C43.973,35.611,44.26,35.209,44.572,34.764z"/>
		<path d="M49.697,35.838c0.004-0.008,0.007-0.018,0.01-0.027c-0.014,0.02-0.025,0.035-0.039,0.053
			c-0.459,0.631-0.973,1.336-1.934,1.498l-0.004,0.25C48.938,37.721,49.286,37.035,49.697,35.838z"/>
		<path d="M45.517,34.82c-0.098,0.129-0.192,0.26-0.289,0.398c-0.26,0.369-0.535,0.764-0.9,1.066
			c0.139,0.027,0.279,0.049,0.416,0.078c0.3,0.061,0.6,0.115,0.902,0.158C45.673,35.9,45.632,35.34,45.517,34.82z"/>
		<path d="M49.956,34.342l-0.521-0.855l-1.156-0.596l-0.498,0.488c-0.002,0.146-0.002,0.293,0.004,0.441l0.004,0.004l-0.002,0.139
			l0.035,0.666l-0.045-0.021l-0.029,1.922c0.562-0.166,0.9-0.619,1.273-1.135c0.27-0.371,0.547-0.754,0.924-1.047
			C49.949,34.346,49.953,34.344,49.956,34.342z"/>
		<path d="M51.01,28.834l0.02-1.762c-0.271-0.125-0.524-0.271-0.766-0.438c-0.154,0.34-0.379,0.674-0.789,0.873
			c0.154,0.592,0.549,1.035,1.176,1.348L51.01,28.834z"/>
		<path d="M52.193,26.57c0.009,0.018,0.021,0.037,0.029,0.057c0.062,0.016,0.123,0.031,0.182,0.045
			C52.336,26.637,52.264,26.596,52.193,26.57z"/>
		<path d="M53.577,30.775l-0.466-0.244c-0.213,0.25-0.461,0.412-0.717,0.514c0.25,0.137,0.483,0.305,0.685,0.529
			C53.199,31.287,53.354,31.01,53.577,30.775z"/>
		<path d="M50.18,31.041l-0.023-0.629c-0.245-0.043-0.483-0.102-0.717-0.166c-0.396-0.111-0.765-0.189-1.103-0.164
			c0.259,0.496,0.524,1.07,0.466,1.713c0.209,0.031,0.404,0.084,0.586,0.164C49.568,31.58,49.878,31.283,50.18,31.041L50.18,31.041z
			"/>
		<path d="M58.479,20.211c-0.065,0.043-0.133,0.084-0.203,0.119c0.465,0.373,0.617,0.895,0.664,1.383l2.371,0.588l0.029-1.287
			c-0.113-0.158-0.219-0.318-0.309-0.486l-0.034-0.082c-0.004-0.016-0.002-0.031-0.009-0.049c-0.395,0.094-0.797,0.182-1.211,0.182
			C59.294,20.578,58.865,20.453,58.479,20.211z"/>
		<path d="M60.301,32.697c0.109-0.307,0.188-0.605,0.229-0.896C60.391,32.098,60.316,32.395,60.301,32.697z"/>
		<path d="M58.193,36.473c-0.754,0.037-1.402,0.078-1.867,0.467c0.472-0.156,0.96-0.246,1.443-0.324
			c0.311-0.051,0.614-0.102,0.907-0.172C58.516,36.455,58.355,36.465,58.193,36.473z"/>
		<path d="M60.229,36.652c-0.722,0.482-1.535,0.621-2.332,0.75c-0.363,0.059-0.713,0.123-1.049,0.211
			c1.293,0.006,2.45-0.213,3.533-0.66L60.229,36.652z"/>
		<path d="M61.352,31.25c0.008,0.67-0.117,1.336-0.424,2.061c0.078,0.053,0.161,0.1,0.236,0.16c0.072-0.025,0.146-0.047,0.221-0.061
			c0.15-0.617,0.609-1.008,0.998-1.336c0.135-0.113,0.262-0.225,0.375-0.34c-0.111-0.176-0.195-0.367-0.25-0.574L61.352,31.25z"/>
		<path d="M57.473,31.336l0.881-0.039c0.047-0.047,0.096-0.098,0.144-0.143c0.157-0.154,0.321-0.287,0.483-0.41
			c-0.385-0.258-0.672-0.621-0.869-1.07c-0.109,0.615-0.42,1.053-0.899,1.301l0.271,0.156l-0.185,0.014
			C57.348,31.207,57.406,31.271,57.473,31.336z"/>
		<path d="M47.637,31.973l-0.588-1.689c-0.211-0.107-0.434-0.209-0.668-0.303l-1.128,1.133c0.416,0.195,0.765,0.492,1.037,0.889
			l0.04,0.074c0.268,0.039,0.546,0.123,0.802,0.285C47.285,32.219,47.451,32.086,47.637,31.973z"/>
		<path d="M61.119,28.008l-0.752,0.014l-1.182,1.162l0.969,1.006c0.178-0.006,0.348,0.008,0.507,0.059l0.104-0.078
			c0.66-0.326,1.264-0.422,1.812-0.293c0.062-0.248,0.145-0.48,0.24-0.707C62.07,29.076,61.525,28.533,61.119,28.008z"/>
		<path d="M46.975,34.951l0.011-0.711c-0.034,0.15-0.064,0.299-0.082,0.443c0,0.016-0.002,0.029-0.003,0.043
			C46.933,34.801,46.949,34.877,46.975,34.951z"/>
		<path d="M52.387,33.139l-1.16-1.125c-0.129,0.014-0.261,0.027-0.391,0.039l-0.391,0.672c0.313,0.363,0.557,0.756,0.634,1.205
			c0.188-0.021,0.38-0.029,0.578-0.006c0.081,0.018,0.146,0.055,0.222,0.08C51.968,33.701,52.12,33.396,52.387,33.139z"/>
		<path d="M51.771,35.246l-0.916-0.125c-0.035,0.068-0.072,0.137-0.105,0.209l0.955,0.447l-0.528-0.529l0.601,0.051L51.771,35.246z"
			/>
		<path d="M69.287,24.797c0-0.201-0.036-0.373-0.105-0.525c-0.131,0.23-0.281,0.43-0.447,0.602c0.143-0.049,0.299-0.082,0.475-0.082
			C69.234,24.791,69.262,24.797,69.287,24.797z"/>
		<path d="M54.628,19.498c-0.177,0-0.354,0.01-0.534,0.021c-0.084,0.004-0.17,0.008-0.254,0.014
			c0.506,0.102,1.047,0.111,1.604,0.115C55.225,19.549,54.967,19.498,54.628,19.498z"/>
		<path d="M69.248,29.828l0.514,0.578l1.26-1.443l0.781-1.822l-2.1-1.367l-1.186,1.199l-0.67,1.287
			C68.501,28.617,68.975,29.139,69.248,29.828z"/>
		<path d="M69.176,34.797c0.459-0.213,0.883-0.432,1.271-0.652c-0.188,0.057-0.381,0.109-0.59,0.162L69.176,34.797z"/>
		<path d="M64.561,22.373c0.135,1.029,0.84,1.682,1.767,2.357l2.174-1.322l-1.209-1.688L64.561,22.373z"/>
		<path d="M69.123,33.852c-0.084-0.125-0.154-0.25-0.215-0.375c-0.025,0.186-0.053,0.373-0.08,0.555
			c-0.002,0.012-0.003,0.023-0.005,0.035L69.123,33.852z"/>
		<path d="M72.498,31.939c0.117-0.436-0.125-1.018-0.693-1.707c-0.021,0.068-0.041,0.137-0.072,0.197
			c-0.281,0.576-0.92,0.855-1.51,1.055l-0.065,0.021H70.15l-0.055,1.91C71.55,33.006,72.344,32.523,72.498,31.939z"/>
		<path d="M67.957,25.465c-0.211,0.117-0.432,0.213-0.648,0.293l0.027,0.016l0.344,0.059c0.008-0.01,0.016-0.021,0.023-0.031
			C67.782,25.693,67.865,25.576,67.957,25.465z"/>
		<path d="M69.066,31.238c-0.086-0.043-0.166-0.092-0.242-0.141c0.039,0.125,0.072,0.25,0.098,0.377
			C68.964,31.395,69.014,31.316,69.066,31.238z"/>
		<path d="M65.322,35.588l2.371-0.861c-0.411-0.766-0.381-1.607-0.348-2.365c0.032-0.707,0.047-1.375-0.264-1.947
			c-0.12-0.006-0.229-0.01-0.335-0.01c-0.99,0-1.399,0.33-1.502,1.215l0.065,2.182l0.006,0.002v0.143l0.009,0.303l-0.009,0.004
			L65.322,35.588z"/>
		<path d="M68.133,33.244c0.064-0.506,0.092-0.982,0.029-1.428c-0.002,0.195-0.01,0.389-0.02,0.582
			C68.13,32.695,68.124,32.975,68.133,33.244z"/>
		<path d="M46.23,38.314l-0.145-0.008l-0.008,0.008C46.129,38.314,46.18,38.314,46.23,38.314z"/>
		<path d="M42.303,35.225c-0.191-0.441-0.444-0.832-0.746-1.186c0.156,0.395,0.411,0.75,0.707,1.133
			C42.276,35.188,42.289,35.205,42.303,35.225z"/>
		<path d="M47.535,16.18c-0.303,0.172-0.596,0.34-0.839,0.531c0.89-0.271,1.525-0.684,1.941-1.271
			C48.299,15.742,47.9,15.973,47.535,16.18z"/>
		<path d="M40.918,21.246c0.002,0.006,0.006,0.014,0.008,0.021c0.043,0.008,0.084,0.014,0.127,0.021
			C41.008,21.277,40.964,21.26,40.918,21.246z"/>
		<path d="M48.287,18.514c-0.02-0.34,0.021-0.672,0.109-0.992c-0.113,0.314-0.168,0.629-0.123,0.945
			C48.275,18.482,48.285,18.498,48.287,18.514z"/>
		<path d="M39.766,20.838c-0.027-0.004-0.055-0.008-0.082-0.012c0.007,0.002,0.01,0.004,0.017,0.008l0.061,0.033
			C39.762,20.857,39.764,20.848,39.766,20.838z"/>
		<path d="M50.389,15.354c-0.111,0.193-0.225,0.387-0.34,0.576c-0.826,1.369-1.486,2.477-0.395,3.879
			c0.045-0.088,0.088-0.174,0.132-0.266c0.376-0.785,0.851-1.74,2.131-1.848c0.202-0.311,0.463-0.512,0.747-0.637
			C51.611,17.033,50.852,16.463,50.389,15.354z"/>
		<path d="M53.385,18.229c-0.152,0.16-0.328,0.297-0.504,0.438c0.178,0.051,0.381,0.076,0.635,0.076
			c0.145,0,0.289-0.008,0.438-0.016C53.755,18.604,53.568,18.432,53.385,18.229z"/>
		<path d="M52.477,16.252c-0.344-0.111-0.651-0.289-0.934-0.51C51.841,16.078,52.171,16.215,52.477,16.252z"/>
		<path d="M39.507,21.635l-0.181-0.096c-0.434-0.229-1.029-0.551-1.151-1.207c-0.089,0.012-0.173,0.039-0.265,0.039l-0.018-0.004
			l-0.51,0.984c0.089,0.732,0.431,1.07,1.119,1.104C38.967,22.246,39.299,21.977,39.507,21.635z"/>
		<path d="M46.425,18.096c0.736,0.711,1.157,1.658,1.312,2.926c0.578,0.406,0.762,0.963,0.814,1.449l0.055,0.006
			c0.063-0.529,0.235-1.033,0.711-1.404l-0.078-0.059c-1.057-0.783-1.629-1.578-1.754-2.434c-0.067-0.479,0.009-0.932,0.173-1.369
			c-0.396,0.182-0.812,0.314-1.234,0.41C46.458,17.773,46.45,17.934,46.425,18.096z"/>
		<path d="M35.646,24.51c0.506,0.113,1.076,0,1.698-0.18c0.099-0.029,0.201-0.057,0.302-0.084c-0.656-0.021-1.306,0.035-1.949,0.168
			C35.682,24.445,35.663,24.477,35.646,24.51z"/>
		<path d="M35.68,29.176c-0.441,0.504-0.314,1.457-0.221,2.154c0.016,0.119,0.031,0.232,0.043,0.338
			c0.068,0.631,0.413,0.701,1.368,0.723c-0.508-0.262-0.906-0.609-1.079-1.098c-0.242-0.688,0.006-1.512,0.754-2.508
			C36.156,28.836,35.865,28.963,35.68,29.176z"/>
		<path d="M38.822,28.434l0.043-0.041l-0.098-0.109c-0.023,0.012-0.05,0.018-0.075,0.027C38.738,28.35,38.78,28.391,38.822,28.434z"
			/>
		<path d="M38.214,29.844l-0.007-0.408l-0.817-0.434c-0.713,0.869-1.008,1.568-0.847,2.025c0.105,0.299,0.415,0.529,0.808,0.711
			c-0.054-0.232-0.069-0.471-0.017-0.715C37.429,30.582,37.725,30.195,38.214,29.844z"/>
		<path d="M38.488,24.879c-0.298,0.045-0.602,0.123-0.922,0.217c-0.488,0.141-0.992,0.285-1.513,0.285
			c-0.31,0-0.599-0.061-0.872-0.168c-0.008,0.012-0.016,0.021-0.023,0.031c1.008,0.221,1.809,0.893,2.43,2.045l0.645-0.094
			l0.748-1.859L38.488,24.879z"/>
		<path d="M40.479,26.127c-0.108,0-0.205-0.016-0.304-0.031c-0.075,0.42-0.216,0.803-0.423,1.154l0.268,0.004l0.577-0.578v-0.232
			h0.231l0.182-0.184l0.102,0.113l-0.158-0.311c-0.031,0.008-0.063,0.025-0.094,0.033C40.695,26.119,40.586,26.127,40.479,26.127z"
			/>
		<path d="M35.055,23.766c0.039-0.01,0.077-0.021,0.115-0.031c0.073-0.121,0.147-0.242,0.221-0.357
			c0.188-0.299,0.365-0.592,0.512-0.893c-0.021,0.025-0.044,0.053-0.064,0.08C35.504,22.969,35.207,23.336,35.055,23.766z"/>
		<path d="M41.678,23.996l-0.029-0.039l-0.584-0.094l0.299-0.318c-0.248-0.406-0.336-0.766-0.249-1.088
			c0.034-0.127,0.095-0.232,0.167-0.328c-0.124-0.014-0.25-0.035-0.378-0.059c-0.009,0.031-0.008,0.064-0.019,0.094
			c-0.225,0.68-0.859,1.088-1.527,1.4c0.006,0.084,0.003,0.168-0.007,0.252c0.362,0.248,0.619,0.584,0.773,0.998l0.677-0.023
			l0.635-0.561L41.678,23.996z"/>
		<path d="M36.359,26.873c-0.254-0.297-0.536-0.512-0.844-0.664c0.225,0.158,0.438,0.328,0.637,0.496
			C36.222,26.766,36.289,26.816,36.359,26.873z"/>
		<path d="M36.236,23.531c0.269-0.035,0.539-0.059,0.807-0.068c-0.109-0.068-0.211-0.145-0.3-0.234
			c-0.073-0.074-0.134-0.16-0.192-0.248C36.453,23.168,36.346,23.352,36.236,23.531z"/>
		<path d="M37.246,19.426c-0.369-0.674-0.59-0.764-0.678-0.764c-0.023,0-0.048,0.006-0.076,0.02
			c-0.187,0.084-0.344,0.699-0.449,1.105c-0.004,0.018-0.009,0.033-0.015,0.051c0.343-0.227,0.726-0.416,1.185-0.416
			C37.225,19.422,37.235,19.426,37.246,19.426z"/>
		<polygon points="39.525,29.129 39.523,29.127 39.522,29.129 		"/>
		<path d="M24.125,28.523c0.057,0.057,0.109,0.115,0.162,0.18c1.025-0.465,1.928-0.637,2.854-0.539l0.005-0.051
			c-0.27-0.158-0.471-0.373-0.604-0.639c-0.215,0.08-0.43,0.131-0.633,0.131c-0.316,0-0.614-0.098-0.887-0.287
			c-0.067,0.016-0.135,0.043-0.204,0.043c-0.093,0-0.183-0.021-0.272-0.049l-0.631,0.973l0.184,0.168L24.125,28.523z"/>
		<path d="M25.668,24.938l0.617-0.633c0.007-0.133,0.014-0.27,0.015-0.404c0.009-0.662,0.029-1.469,0.729-2.061
			c0.003-0.059,0.006-0.117,0.008-0.176c-1.206,0.006-1.441,0.695-1.693,1.918c-0.039,0.186-0.08,0.371-0.128,0.553
			c0.019,0.266,0.053,0.527,0.091,0.787C25.428,24.93,25.548,24.938,25.668,24.938z"/>
		<path d="M23.176,31.766c-0.002,0.004-0.004,0.01-0.006,0.014c-0.127,0.547-0.096,0.969,0.09,1.258
			c0.153,0.238,0.437,0.408,0.834,0.514c0.299-0.354,0.642-0.545,1.027-0.545c0.398,0,0.762,0.193,1.082,0.361
			c0.053,0.029,0.104,0.055,0.155,0.08l0.352-2.154l1.06,1.393c0.17-0.348,0.233-0.752,0.295-1.178
			c0.066-0.449,0.139-0.91,0.336-1.346l-1.082-0.547c-0.658-0.164-1.316,0.084-1.999,0.377c-0.25,0.107-0.509,0.213-0.776,0.301
			l-0.018,0.072l-0.25,0.018l-0.153,0.041l-0.038-0.029l-0.211,0.014l0.004,0.646l-0.254-0.178L23.176,31.766z"/>
		<path d="M27.649,27.109l0.998-0.506l-0.002-0.189l0.324,0.027l0.146-0.074l0.093,0.086c0.593,0.006,0.78-0.344,1.056-1.018
			c0.108-0.262,0.227-0.541,0.395-0.789c-0.065-0.135-0.124-0.27-0.174-0.41c-0.137-0.428-0.169-0.867-0.118-1.33
			c-0.051,0.023-0.107,0.043-0.161,0.063c-0.198,0.877-0.975,1.281-1.582,1.598c-0.25,0.127-0.485,0.25-0.684,0.393
			c0.029,0.723-0.445,1.189-0.803,1.445c0.018,0.09,0.02,0.172,0.014,0.248L27.649,27.109z"/>
		<path d="M28.061,22.984c-0.025-0.01-0.055-0.016-0.08-0.027c-0.012,0.041-0.022,0.082-0.034,0.121
			C27.985,23.049,28.02,23.014,28.061,22.984z"/>
		<path d="M24.107,34.371c-0.101-0.02-0.189-0.051-0.282-0.078c0.776,0.422,1.682,0.828,2.708,1.211
			c-0.102-0.053-0.204-0.105-0.307-0.156L24.107,34.371z"/>
		<path d="M22.714,33.619c-0.041-0.051-0.089-0.096-0.124-0.15c-0.294-0.451-0.357-1.051-0.211-1.766
			c-0.082-0.164-0.196-0.326-0.324-0.5c-0.347-0.467-0.805-1.1-0.467-1.965c-0.031-0.123-0.052-0.248-0.063-0.373
			c-0.591,0.621-0.919,1.254-0.919,1.875C20.605,31.697,21.35,32.684,22.714,33.619z"/>
		<path d="M22.623,30.213l0.008-0.023l-0.358-0.248c0.028,0.195,0.141,0.391,0.307,0.623C22.586,30.445,22.6,30.328,22.623,30.213z"
			/>
		<path d="M32.49,29.457c-0.504,0.658-1.2,1.137-2.301,1.137c-0.207,0-0.428-0.023-0.658-0.057c0.02,0.121,0.037,0.244,0.057,0.367
			c0.174,1.082,0.379,2.422-1.078,3.342l-0.809,0.672l-0.029,0.084l-0.116,0.037l-0.07,0.059c1.035,0.533,2.034,1,3.159,1
			c0.228,0,0.457-0.02,0.686-0.059l0.017-0.002l0.128-0.023l0.023,0.014c0.152-0.014,0.305-0.018,0.459-0.018
			c-0.623-1.295-0.48-2.807,0.508-3.959C33.175,31.236,33.005,30.512,32.49,29.457z"/>
		<path d="M23.095,28.928l0.003-0.129l-0.283,0.043C22.906,28.861,23.001,28.887,23.095,28.928z"/>
		<path d="M23.121,27.742l0.133,0.098l0.334-0.514c-0.445,0.252-0.836,0.508-1.186,0.771l0.713-0.107L23.121,27.742z"/>
		<path d="M32.388,26.369c-0.139-0.064-0.272-0.141-0.399-0.227c-0.108,0.215-0.197,0.453-0.286,0.701
			c-0.108,0.301-0.229,0.629-0.406,0.936c0.273-0.328,0.534-0.676,0.8-1.029C32.192,26.621,32.291,26.496,32.388,26.369z"/>
		<path d="M28.316,33.406c0.602-0.486,0.656-1.076,0.555-1.889c-0.006,0.035-0.012,0.07-0.017,0.105
			c-0.086,0.592-0.183,1.199-0.565,1.746L28.316,33.406z"/>
		<path d="M28.691,27.475c0.007,0,0.012-0.002,0.018-0.002c0-0.002,0-0.004,0-0.006L28.691,27.475z"/>
		<path d="M28.239,28.492c0.135,0.068,0.261,0.145,0.38,0.232c0.063-0.164,0.138-0.322,0.229-0.471
			c-0.193,0.041-0.396,0.068-0.605,0.084C28.242,28.389,28.244,28.439,28.239,28.492z"/>
		<path d="M31.122,36.861c0.071,0.016,0.145,0.033,0.217,0.049c-0.024-0.021-0.049-0.037-0.07-0.061
			C31.219,36.857,31.172,36.855,31.122,36.861z"/>
		<path d="M30.497,19.555c0.017-0.004,0.032-0.006,0.048-0.012c0.396-0.088,0.779-0.178,1.145-0.299
			c-0.471,0.016-0.872,0.09-1.223,0.293C30.477,19.543,30.486,19.549,30.497,19.555z"/>
		<path d="M29.989,29.002c0.199-0.135,0.386-0.283,0.563-0.441c-0.13,0.078-0.275,0.143-0.438,0.197L29.989,29.002z"/>
		<path d="M31.764,18.441c-0.046-0.188-0.068-0.387-0.057-0.596c-0.203,0.027-0.406,0.057-0.606,0.076
			c-1.237,0.117-1.996,0.26-2.243,1.344l0.698-0.033C30.228,18.586,30.992,18.451,31.764,18.441z"/>
		<path d="M32.081,28.656c-0.057-0.109-0.113-0.219-0.17-0.33l0.466-0.232c0.129-0.275,0.25-0.568,0.374-0.873
			c0.005-0.012,0.011-0.025,0.017-0.037c-0.012,0.014-0.021,0.027-0.031,0.041c-0.709,0.951-1.439,1.92-2.5,2.566
			C31.145,29.773,31.676,29.318,32.081,28.656z"/>
		<path d="M29.814,21.658l0.262-0.008l-0.432-1.109c-0.043,0.004-0.086,0.006-0.127,0.006c-0.386,0-0.723-0.096-1.018-0.271
			l-0.556,0.951c0.091,0.127,0.147,0.268,0.187,0.414L29.814,21.658z"/>
		<path d="M28.225,23.877c0.011-0.006,0.02-0.014,0.031-0.018c0.453-0.234,0.789-0.426,0.991-0.68c-0.012,0-0.023,0-0.036,0
			c-0.096,0.066-0.192,0.127-0.287,0.189C28.663,23.535,28.42,23.691,28.225,23.877z"/>
		<path d="M64.521,34.414c-0.027-0.004-0.054-0.006-0.08-0.01c0.021,0.119,0.047,0.236,0.08,0.352V34.414z"/>
		<path d="M66.216,29.055c0.231,0,0.481,0.031,0.74,0.082c-0.058-0.1-0.104-0.211-0.155-0.32l-0.02-0.002l-0.002,0.012l-0.312-0.02
			l-0.201-0.004l-0.029-0.043c-0.35-0.072-0.605-0.256-0.75-0.545l-1.195,0.6l-0.576,1.936l0.018,0.441
			C64.251,29.428,65.365,29.055,66.216,29.055z"/>
		<path d="M58.154,35.676c0.647-0.033,1.258-0.07,1.711-0.35l0.496-0.924l-0.219-0.008l-2.416-0.016l-2.172,0.033l-0.003,0.002
			h-0.188L54.98,34.42v-0.004l-1.438,0.004l0.394,1.061l0.147,0.012l-0.028,0.311l0.104,0.277l-0.155,0.063
			c-0.012,0.082-0.023,0.162-0.041,0.242c0.028,0.063,0.061,0.119,0.088,0.187l0.026,0.096c0.011,0.068,0.019,0.137,0.026,0.207
			l0.013,0.039l0.979,0.463C55.686,35.807,57.043,35.734,58.154,35.676z"/>
		<path d="M62.865,35.709l-1.287-1.297c-0.012,0-0.021,0-0.033,0c0.028,0.543-0.193,1.004-0.438,1.359
			c0.115,0.119,0.221,0.25,0.283,0.414c0.051,0.133,0.068,0.275,0.069,0.422l1.849-0.482l-0.442-0.434L62.865,35.709z"/>
		<polygon points="55.641,78.66 59.859,77.596 63.15,44.295 56.902,46.09 		"/>
		<path d="M63.258,34.111c-0.015,0-0.033,0-0.056,0.006c0.038,0.027,0.077,0.057,0.116,0.084l0.063,0.061
			c0.063,0.072,0.156,0.145,0.259,0.217c-0.017-0.102-0.033-0.201-0.043-0.301C63.473,34.139,63.352,34.111,63.258,34.111z"/>
		<path d="M89,0H5C2.239,0,0,2.238,0,5v84c0,2.762,2.239,5,5,5h84c2.762,0,5-2.238,5-5V5C94,2.238,91.762,0,89,0z M75.575,31.939
			l-6.332,43.995c0,0-3.354,9.971-19.82,9.971h-4.848c-16.466,0-19.819-9.971-19.819-9.971l-6.332-43.995
			c-0.113-0.387-0.172-0.787-0.172-1.199c0-2.604,2.349-4.725,6.045-6.34c0.113-0.293,0.191-0.625,0.266-0.98
			c0.244-1.176,0.535-2.65,2.669-2.555L28,19.552c0.229-2.156,1.776-2.307,3.025-2.426c0.319-0.029,0.618-0.064,0.899-0.121
			l0.038-0.096l0.233,0.039l0.202-0.053l0.05,0.08c1.463,0.17,2.033-0.754,2.678-1.865c0.223-0.387,0.46-0.777,0.737-1.131
			c0.089-0.838,0.38-2.949,2.22-2.949c0.855,0,1.826,0.463,2.767,0.912l0.244,0.117l0.068-0.008l0.086,0.08l0.479,0.227l-0.12,0.111
			l0.375,0.354l0.853-0.275l-0.232,0.326l0.666,0.051l1.081-0.492c-0.632-1.043-0.788-1.867-0.475-2.508
			c0.317-0.645,1.07-1.016,2.284-1.137c0.012-0.102,0.026-0.201,0.029-0.303l0.008-0.391h0.486h0.826h1.89h0.521h0.506h0.552h2.391
			l0.002,1.961c0.02,0.129,0.033,0.26,0.047,0.389l1.311,0.889l0.037,0.018c0.59,0.275,0.903,0.609,0.955,1.023
			c0.049,0.387-0.162,0.781-0.615,1.197c-0.002,0.012,0,0.025,0,0.037c0.119,0.014,0.235,0.053,0.353,0.092
			c0.249-0.051,0.494-0.025,0.726,0.076l4.303-0.133l-0.006-0.027l0.504,0.012l0.172-0.006l0.008,0.01l0.76,0.016
			c-0.082-0.393-0.048-0.725,0.125-0.992c0.354-0.553,1.111-0.627,1.648-0.633l0.229-0.006c0.109-0.004,0.221-0.006,0.329-0.006
			c0.433,0,1.44,0,1.765,1.133c0.393,1.375-0.518,2.111-1.291,2.699l0.523,0.898l1.695,0.105l0.089-0.145l0.258,0.168l0.194,0.012
			l0.031,0.141c1.123,0.762,1.684,1.518,1.699,2.313c0.014,0.695-0.384,1.359-1.203,2.018l1.385,1.936
			c0.512,0.434,0.726,1.016,0.664,1.766c0,0,2.562,1.164,2.549,0.906c1.979,1.35,3.141,2.945,3.141,4.779
			C75.748,31.152,75.688,31.553,75.575,31.939z"/>
		<path d="M64.368,32.363c-0.019,0.217-0.019,0.445-0.019,0.676c0.049,0.031,0.096,0.063,0.145,0.096l-0.025-0.805
			C64.436,32.34,64.402,32.355,64.368,32.363z"/>
		<path d="M72.652,27.186l-0.817,1.904c0.847,0.846,1.324,1.598,1.45,2.273c0.068-0.209,0.107-0.418,0.107-0.623
			c0-0.666-0.361-1.348-1.037-2.014C72.546,28.246,72.65,27.727,72.652,27.186z"/>
		<polygon points="64.348,76.102 67.637,72.312 72.822,40.107 69.134,42.4 		"/>
		<path d="M53.871,38.23c0.331-0.027,0.656-0.059,0.98-0.09l-0.808-0.381C54.002,37.943,53.939,38.094,53.871,38.23z"/>
		<path d="M38.593,33.758l-0.18-0.162l-0.057-0.002l-0.073-0.109c-0.315-0.27-0.84-0.283-1.396-0.295
			c-0.855-0.018-2.026-0.045-2.18-1.436l-0.04-0.32c-0.106-0.799-0.269-2.006,0.412-2.785c0.337-0.385,0.841-0.598,1.483-0.658
			c-0.333-0.195-0.64-0.432-0.926-0.676c-0.538-0.455-1.011-0.84-1.667-0.873c-0.172,0.336-0.325,0.695-0.48,1.08
			c-0.155,0.381-0.316,0.771-0.506,1.143c0.656,1.256,1.266,2.553,0.082,3.908c-0.861,1.006-0.889,2.371-0.175,3.459
			c0.378,0.02,0.761,0.031,1.132-0.049l0.229-0.064c0.242-0.084,0.479-0.209,0.699-0.418c0.688-0.646,1.293-0.975,1.796-0.975
			c0.288,0,0.813,0.115,1.09,0.873c0.233,0.643,0.233,1.135,0.001,1.504c-0.235,0.375-0.652,0.523-1.096,0.604
			c0.086,0.006,0.172,0.012,0.267,0.012c0.276,0,0.556-0.023,0.835-0.047c0.152-0.014,0.307-0.025,0.46-0.035l0.62-3.83
			l-0.186-0.002L38.593,33.758z"/>
		<path d="M40.624,32.443l-0.009-1.424l-0.581-0.598l-0.608,0.008l-0.001,0.018l-0.263,0.078c-0.52,0.152-0.636,0.313-0.662,0.375
			c-0.068,0.164,0.11,0.494,0.267,0.785c0.089,0.166,0.185,0.352,0.259,0.545c0.034,0.008,0.07,0.016,0.104,0.021l0.136,0.053
			c0.13,0.082,0.24,0.184,0.354,0.283C39.923,32.443,40.259,32.396,40.624,32.443z"/>
		<path d="M36.03,36.801c0.466-0.047,0.993-0.1,1.132-0.322c0.09-0.143,0.063-0.43-0.074-0.809
			c-0.127-0.346-0.271-0.346-0.341-0.346c-0.134,0-0.521,0.072-1.25,0.758c-0.077,0.072-0.156,0.135-0.235,0.195
			c0.122-0.008,0.244-0.023,0.365-0.027l0.665-0.018L36.008,36.8C36.015,36.801,36.023,36.801,36.03,36.801z"/>
		<path d="M39.621,34.291l-0.314,1.941C39.606,35.611,39.711,34.969,39.621,34.291z"/>
		<polygon points="30.315,44.029 33.604,77.33 37.825,78.393 36.563,45.824 		"/>
		<path d="M41.632,35.658c-0.437-0.566-0.921-1.199-1.011-2.043h-0.322c0.363,1.418,0.068,2.746-0.9,3.957l0.44,0.094
			c0.531-0.836,1.357-1.195,2.216-1.42C41.926,36.051,41.785,35.857,41.632,35.658z"/>
		<path d="M52.611,36.824l-1.896-1.428c-0.093,0.221-0.179,0.453-0.265,0.701c-0.272,0.789-0.599,1.723-1.466,2.127
			c1.141-0.037,2.279-0.057,3.416,0.006l0.101,0.004c0.406,0,0.687-0.131,0.794-0.691C52.962,37.428,52.734,37.176,52.611,36.824z"
			/>
		<rect x="43.874" y="46.09" width="5.981" height="33.102"/>
		<polygon points="20.644,39.842 25.827,72.045 29.117,75.834 24.332,42.135 		"/>
		<path d="M45.94,38.318l-0.093-0.023l-0.41-0.02l0.014-0.076l-2.848-0.686l-1.237,0.498c1.134,0.211,2.375,0.316,3.886,0.316
			C45.48,38.328,45.711,38.32,45.94,38.318z"/>
		<path d="M66.092,17.701c0.049-0.031,0.09-0.066,0.137-0.098l-0.567-0.035c0.037,0.127,0.067,0.252,0.079,0.385
			C65.857,17.863,65.977,17.779,66.092,17.701z"/>
		<path d="M62.986,13.588c1.018,0,1.312,0.76,1.473,1.451c0.645-0.512,0.999-0.932,0.787-1.676c-0.12-0.42-0.361-0.555-0.997-0.555
			c-0.103,0-0.204,0.004-0.308,0.006l-0.24,0.006c-0.715,0.01-0.926,0.172-0.986,0.266c-0.068,0.105-0.062,0.291,0.014,0.533
			C62.814,13.609,62.909,13.588,62.986,13.588z"/>
		<path d="M59.775,18.832l-0.037-0.004c-0.199-0.014-0.387-0.055-0.574-0.096c-0.074,0.111-0.135,0.242-0.174,0.408l2.553-0.621
			l0.041-0.037l0.107,0.002l0.242-0.059c-0.072-0.1-0.154-0.188-0.22-0.295c-0.491,0.389-1.112,0.609-1.901,0.695L59.775,18.832z"/>
		<path d="M65.869,20.598c0.154-0.027,0.309-0.051,0.467-0.051c0.377,0,0.73,0.086,1.079,0.252c0.665-0.512,1.01-1,1.001-1.447
			c-0.008-0.4-0.303-0.832-0.848-1.287c-0.043,0.184-0.106,0.354-0.213,0.498c-0.289,0.385-0.75,0.531-1.168,0.598
			C66.188,19.701,66.068,20.176,65.869,20.598z"/>
		<path d="M64.654,21.008c0.294-0.344,0.529-0.727,0.652-1.168c-0.058,0.078-0.113,0.16-0.17,0.234
			c-0.277,0.371-0.484,0.676-0.593,0.988C64.582,21.045,64.618,21.025,64.654,21.008z"/>
		<path d="M60.568,26.752c0.016-0.002,0.033-0.002,0.049-0.002c0.031,0,0.061,0.004,0.091,0.006c-0.05-0.494,0.005-0.998,0.185-1.51
			c-0.037-0.029-0.072-0.059-0.106-0.09l-0.269,0.25L60.568,26.752z"/>
		<path d="M62.529,17.012c0.604,0.244,0.988,0.744,1.111,1.461l0.955-0.084l0.014-1.164l-0.688-1.205l-1.581-1.566l-0.468-0.008
			C62.404,15.123,62.809,15.947,62.529,17.012z"/>
		<path d="M57.008,22.951c-0.07,0.066-0.152,0.119-0.244,0.16c0.047,0.041,0.112,0.072,0.191,0.096
			C56.971,23.121,56.984,23.035,57.008,22.951z"/>
		<path d="M55.693,23.75c-0.053-0.105-0.09-0.207-0.114-0.307c-0.304,0.16-0.61,0.244-0.925,0.25c0.279,0.779,0.342,1.49,0.195,2.16
			c0.764-0.574,1.525-1.021,2.313-1.352c-0.009-0.014-0.021-0.025-0.026-0.039c-0.037,0.004-0.076,0.01-0.115,0.01
			c-0.438,0-0.849-0.205-1.26-0.627L55.693,23.75z"/>
		<path d="M57.014,15.291c-0.01,0.217-0.117,0.383-0.242,0.512l0.375,0.426l2.246,1.385l1.871-0.637l-0.597-2.541l-4.054,0.127
			C56.807,14.721,57.025,14.965,57.014,15.291z"/>
		<path d="M57.061,20.814c-0.025-0.152-0.031-0.299-0.021-0.439c-0.093-0.031-0.177-0.088-0.263-0.131
			c-0.06,0.029-0.12,0.055-0.184,0.078l0.004,0.072L57.061,20.814z"/>
		<path d="M61.863,23.396l-0.24,0.529c0.023-0.049,0.048-0.094,0.072-0.145c0.062-0.133,0.129-0.266,0.195-0.398
			C61.882,23.389,61.873,23.391,61.863,23.396z"/>
		<path d="M58.227,33.453c-0.025,0.012-0.052,0.023-0.078,0.033c0,0.033,0,0.064,0,0.1l1.412,0.008
			C59.113,33.51,58.657,33.469,58.227,33.453z"/>
		<path d="M57.083,33.441l-0.147-0.002c-0.238,0-0.478,0.012-0.715,0.016c-0.021,0.051-0.047,0.102-0.074,0.15l0.953-0.014
			C57.09,33.543,57.086,33.492,57.083,33.441z"/>
		<path d="M31.832,22.293l0.023,1.986l0.616,0.648l0.901,0.51c0.024-0.012,0.043-0.027,0.066-0.037
			c0.043-0.496,0.227-0.971,0.73-1.314c0.097-0.859,0.6-1.48,1.053-2.029c0.199-0.24,0.377-0.475,0.531-0.717l-0.198-0.201
			c-0.013,0.008-0.024,0.018-0.036,0.025l-0.108,0.043c-0.221,0.055-0.437,0.082-0.642,0.082c-0.934,0-1.575-0.566-2.039-1.127
			c-0.043,0.057-0.088,0.115-0.131,0.172c-0.435,0.568-0.811,1.059-0.771,1.746v0.016l0.013,0.189L31.832,22.293z"/>
		<path d="M59.6,31.881c-0.106,0.326-0.258,0.605-0.442,0.846c0.116,0.014,0.229,0.025,0.348,0.045
			c0.007-0.326,0.063-0.648,0.172-0.965L59.6,31.881z"/>
		<path d="M56.588,32.65l-0.121-0.117c-0.003,0.041-0.005,0.08-0.011,0.119C56.5,32.652,56.544,32.65,56.588,32.65z"/>
		<path d="M63.678,21.279c0.069-0.643,0.424-1.152,0.771-1.613c-0.134,0.025-0.271,0.041-0.415,0.041
			c-0.156,0-0.317-0.016-0.482-0.045l-0.082-0.025c-0.084-0.033-0.152-0.086-0.23-0.125c-0.342,0.289-0.715,0.467-1.062,0.588h0.001
			C62.945,20.1,63.445,20.5,63.678,21.279z"/>
		<path d="M62.611,21.256c0.101,0.094,0.201,0.188,0.313,0.283c-0.098-0.365-0.254-0.529-0.432-0.594
			C62.542,21.047,62.582,21.15,62.611,21.256z"/>
		<path d="M54.207,17.258c0.32,0.316,0.734,0.387,1.298,0.4c0.05-0.311,0.155-0.588,0.333-0.822
			c-0.098-0.137-0.186-0.277-0.252-0.43l-0.896,0.354L54.207,17.258z"/>
		<path d="M62.938,23.141c-0.193,0.307-0.356,0.639-0.521,0.984c-0.096,0.197-0.193,0.398-0.297,0.596
			C62.938,24.537,62.947,23.984,62.938,23.141z"/>
		<path d="M65.182,26.953l0.188-0.012c0.136,0,0.272,0.016,0.409,0.037c0.033-0.129,0.086-0.256,0.148-0.379
			c-0.023-0.055-0.058-0.098-0.078-0.154c-0.045-0.121-0.022-0.221,0.02-0.309c-0.035-0.098-0.061-0.195-0.073-0.293
			c-1.019-0.254-1.731-0.824-2.133-1.662c-0.132,0.621-0.504,1.178-1.53,1.35l0.012,1.801l1.42,0.602
			C64.018,27.418,64.555,27.086,65.182,26.953z"/>
		<path d="M58.711,24.141l0.837,0.395c0.179-0.232,0.418-0.443,0.757-0.527c0.014-0.111,0.041-0.211,0.077-0.307
			c-0.687-0.086-1.335-0.434-1.868-0.732c-0.035-0.027-0.065-0.062-0.102-0.092l-0.076,0.098l-0.132,0.672L58.711,24.141z"/>
		<path d="M40.381,17.506c-0.018-0.031-0.027-0.064-0.045-0.096c-0.61-0.213-1.056-0.539-1.308-0.986
			c-0.216-0.387-0.281-0.852-0.227-1.398c-0.206,0.092-0.421,0.17-0.651,0.213c0.553,0.977,0.957,1.842,1.25,2.68l1.731,0.449
			l-0.036-0.322c-0.232-0.115-0.447-0.258-0.639-0.439L40.381,17.506z"/>
		<path d="M41.091,13.08l-0.104-0.098c-0.148,0.092-0.302,0.172-0.455,0.246c-0.128,0.061-0.236,0.115-0.332,0.17l0.8-0.259
			L41.091,13.08z"/>
		<path d="M38.199,17.066c-0.16-0.352-0.34-0.715-0.549-1.102C37.775,16.357,37.957,16.725,38.199,17.066z"/>
		<path d="M39.414,19.281c-0.051,0.178-0.12,0.35-0.213,0.512c0.141,0.117,0.317,0.197,0.56,0.242l-0.011-0.309l0.549,0.357
			l0.106,0.004l0.058,0.096c0.813,0.502,1.616,0.547,2.471,0.135l-0.088-0.197l0.295-0.014l-0.185-0.146
			c-0.017,0-0.035,0.002-0.05,0.002c-0.547,0-0.975-0.15-1.305-0.443c-0.287,0.133-0.576,0.207-0.868,0.207
			C40.246,19.727,39.815,19.543,39.414,19.281z"/>
		<path d="M42.528,18.279c-0.007,0.066-0.014,0.129-0.025,0.193c0.283,0.016,0.54,0.059,0.78,0.129
			c-0.072-0.143-0.119-0.297-0.156-0.459C42.934,18.207,42.734,18.256,42.528,18.279z"/>
		<path d="M33.59,18.447l-0.063,0.188c0.191,0.188,0.361,0.393,0.517,0.6c0.368,0.492,0.645,0.787,1.099,0.814
			c0.045-0.15,0.087-0.305,0.128-0.463c0.177-0.682,0.358-1.387,0.888-1.631c0.133-0.061,0.271-0.092,0.41-0.092
			c0.676,0,1.137,0.678,1.496,1.406l0.141,0.004l-0.01-0.988c-0.924-0.896-1.438-1.982-1.537-3.238l-0.354-0.328
			c-0.168,0.246-0.327,0.512-0.49,0.791c-0.604,1.041-1.316,2.201-2.863,2.277l0.412,0.662L33.59,18.447z"/>
		<path d="M39.908,16.242c-0.016-0.08-0.021-0.158-0.033-0.238c-0.017-0.061-0.035-0.121-0.053-0.18
			c-0.07-0.254-0.141-0.5-0.229-0.729c-0.04,0.383-0.002,0.699,0.132,0.938C39.768,16.111,39.843,16.174,39.908,16.242z"/>
		<path d="M52.461,14.127c-0.324-0.252-0.621-0.475-0.928-0.467l-0.426,0.449c1.072,1.445,1.942,1.764,3.184,1.268
			c0.011-0.006,0.021-0.018,0.033-0.023l0.688-0.688c-0.011-0.084-0.027-0.166-0.023-0.25c-0.045-0.004-0.09-0.018-0.137-0.014
			c-0.328,0.246-0.653,0.371-0.988,0.371C53.299,14.773,52.854,14.432,52.461,14.127z"/>
		<path d="M43.156,16.873l0.604-2.648l-0.59-0.506l-1.09-0.082c-0.492,0.754-0.61,1.623-0.726,2.543
			c-0.026,0.223-0.062,0.443-0.095,0.664c0.061,0.012,0.117,0.029,0.178,0.035L43.156,16.873z"/>
		<path d="M38.833,13.684c-0.146-0.48-0.134-0.846,0.044-1.121c0.134-0.211,0.338-0.318,0.553-0.385
			c-0.489-0.201-0.957-0.35-1.348-0.35c-0.339,0-1.111,0.004-1.395,1.998c0.185,0.061,0.355,0.148,0.52,0.26
			C37.725,13.701,38.338,13.684,38.833,13.684z"/>
		<path d="M33.193,19.461c0.086,0.111,0.173,0.217,0.259,0.314c-0.015-0.021-0.031-0.041-0.046-0.063
			c-0.07-0.092-0.139-0.174-0.208-0.26C33.196,19.455,33.195,19.459,33.193,19.461z"/>
		<path d="M49.139,10.74c-0.021,0.188-0.062,0.361-0.115,0.521c0.195-0.166,0.429-0.268,0.717-0.268
			c0.228,0,0.451,0.057,0.673,0.119l0.278-0.242l-0.319-0.4l-0.715-0.033c-0.136,0.104-0.279,0.197-0.438,0.275L49.139,10.74z"/>
		<path d="M49.738,11.791c-0.045,0-0.105,0.002-0.17,0.039c0.094-0.01,0.188-0.016,0.279-0.023
			C49.812,11.803,49.771,11.791,49.738,11.791z"/>
		<path d="M49.824,12.611c0.084,0.248,0.136,0.492,0.168,0.738l0.133,0.064c0.139-0.322,0.357-0.576,0.658-0.762
			c0.001-0.045-0.002-0.092,0.004-0.137c-0.237,0.041-0.475,0.057-0.709,0.072C49.991,12.594,49.91,12.604,49.824,12.611z"/>
		<path d="M52.613,12.166l-0.24-0.025l-0.123,0.238c0.439,0.133,0.766,0.467,1.057,0.777c0.33,0.35,0.596,0.613,0.961,0.574
			l-0.156-0.363c-0.129-0.041-0.221-0.117-0.262-0.271l-0.08-0.307l0.11-0.059c-0.036-0.248,0.14-0.389,0.3-0.477
			c0.006-0.111,0.008-0.223,0.01-0.332L53.113,11.2l-0.467,0.547l0.131,0.256l-0.174,0.037L52.613,12.166z"/>
		<path d="M52.312,9.459l0.033,0.113l0.025,0.01c0.064,0.012,0.132,0.02,0.197,0.031V8.892h-1.604c0,0.043-0.002,0.086-0.002,0.129
			l1.271,0.506L52.312,9.459z"/>
		<path d="M44.974,14.248c0.003,0.016,0.003,0.031,0.006,0.047l0.157,0.158c0.782-0.084,0.994-0.469,1.033-1.193
			c-0.134,0.029-0.268,0.053-0.396,0.053c-0.313,0-0.61-0.092-0.89-0.264l-0.689,0.32C44.502,13.557,44.811,13.813,44.974,14.248z"
			/>
		<path d="M45.624,15.68l-0.064-0.006c-0.057-0.004-0.108-0.018-0.161-0.025c0.014,0.418,0.064,0.742,0.266,1.002
			c0.376-0.529,0.951-0.865,1.479-1.164c1.01-0.572,1.619-0.98,1.447-2.115l-0.001-0.012l-0.114-0.744l0.024,0.012L48.496,12.6
			l-0.298-0.266l-0.071,0.033c-0.252,0.078-0.495,0.117-0.725,0.117c-0.101,0-0.194-0.016-0.289-0.031
			c-0.008,0.021-0.012,0.045-0.021,0.068c0.431,0.744,0.56,1.379,0.353,1.912c-0.223,0.58-0.814,0.994-1.758,1.23L45.624,15.68z"/>
		<path d="M46.181,12.051c0-0.012,0-0.021,0.001-0.033c-0.067-0.057-0.136-0.111-0.198-0.178l-0.061-0.084
			c-0.365-0.693-0.404-1.398-0.124-2.109c-0.638,0.117-1.059,0.328-1.209,0.631c-0.192,0.393,0.002,1.047,0.539,1.889L46.181,12.051
			z"/>
		<path d="M47.797,11.359l0.074-1.271l-0.714-1.195h-0.198c-0.01,0.096-0.026,0.191-0.043,0.283l0.061,2.141L47.797,11.359z"/>
		<path d="M49.346,9.143l0.012-0.25h-0.844c0.17,0.176,0.319,0.373,0.436,0.604L49.346,9.143z"/>
	</g>
</g>
</svg>